<svg xmlns="http://www.w3.org/2000/svg" xmlns:xlink="http://www.w3.org/1999/xlink" style="margin: auto; background: none; display: block; shape-rendering: auto;" width="1" height="4" preserveAspectRatio="xMidYMid"><rect id="backgroundrect" width="100%" height="100%" x="0" y="0" fill="none" stroke="none"/>

<!-- [ldio] generated by https://loading.io/ --><g class="currentLayer" style=""><title>Layer 1</title><g id="svg_1" class="">
  <rect x="0" y="0" rx="0.5" ry="2" width="1" height="4" fill="#1c35af" id="svg_2">
    <animate attributeName="opacity" values="1;0" keyTimes="0;1" dur="1s" begin="-0.9655172413793104s" repeatCount="indefinite"/>
  </rect>
</g><g transform="rotate(12.413793563842773 0.4999999999999929,9.000000000000002) " id="svg_3" class="">
  <rect x="0" y="0" rx="0.5" ry="2" width="1" height="4" fill="#1c35af" id="svg_4">
    <animate attributeName="opacity" values="1;0" keyTimes="0;1" dur="1s" begin="-0.9310344827586207s" repeatCount="indefinite"/>
  </rect>
</g><g transform="rotate(24.827587127685547 0.5000000000000067,8.999999999999998) " id="svg_5" class="">
  <rect x="0" y="0" rx="0.5" ry="2" width="1" height="4" fill="#1c35af" id="svg_6">
    <animate attributeName="opacity" values="1;0" keyTimes="0;1" dur="1s" begin="-0.896551724137931s" repeatCount="indefinite"/>
  </rect>
</g><g transform="rotate(37.24137878417969 0.5000000000000032,8.999999999999998) " id="svg_7" class="">
  <rect x="0" y="0" rx="0.5" ry="2" width="1" height="4" fill="#1c35af" id="svg_8">
    <animate attributeName="opacity" values="1;0" keyTimes="0;1" dur="1s" begin="-0.8620689655172413s" repeatCount="indefinite"/>
  </rect>
</g><g transform="rotate(49.655174255371094 0.5000000000000011,9) " id="svg_9" class="">
  <rect x="0" y="0" rx="0.5" ry="2" width="1" height="4" fill="#1c35af" id="svg_10">
    <animate attributeName="opacity" values="1;0" keyTimes="0;1" dur="1s" begin="-0.8275862068965517s" repeatCount="indefinite"/>
  </rect>
</g><g transform="rotate(62.068965911865234 0.5000000000000009,9) " id="svg_11" class="">
  <rect x="0" y="0" rx="0.5" ry="2" width="1" height="4" fill="#1c35af" id="svg_12">
    <animate attributeName="opacity" values="1;0" keyTimes="0;1" dur="1s" begin="-0.7931034482758621s" repeatCount="indefinite"/>
  </rect>
</g><g transform="rotate(74.48275756835938 0.49999999999999745,9.000000000000002) " id="svg_13" class="">
  <rect x="0" y="0" rx="0.5" ry="2" width="1" height="4" fill="#1c35af" id="svg_14">
    <animate attributeName="opacity" values="1;0" keyTimes="0;1" dur="1s" begin="-0.7586206896551724s" repeatCount="indefinite"/>
  </rect>
</g><g transform="rotate(86.89655303955078 0.5000000000000006,9) " id="svg_15" class="">
  <rect x="0" y="0" rx="0.5" ry="2" width="1" height="4" fill="#1c35af" id="svg_16">
    <animate attributeName="opacity" values="1;0" keyTimes="0;1" dur="1s" begin="-0.7241379310344828s" repeatCount="indefinite"/>
  </rect>
</g><g transform="rotate(99.31034851074219 0.4999999999999995,9) " id="svg_17" class="">
  <rect x="0" y="0" rx="0.5" ry="2" width="1" height="4" fill="#1c35af" id="svg_18">
    <animate attributeName="opacity" values="1;0" keyTimes="0;1" dur="1s" begin="-0.6896551724137931s" repeatCount="indefinite"/>
  </rect>
</g><g transform="rotate(111.72413635253906 0.5000000000000004,9) " id="svg_19" class="">
  <rect x="0" y="0" rx="0.5" ry="2" width="1" height="4" fill="#1c35af" id="svg_20">
    <animate attributeName="opacity" values="1;0" keyTimes="0;1" dur="1s" begin="-0.6551724137931034s" repeatCount="indefinite"/>
  </rect>
</g><g transform="rotate(124.13793182373047 0.5000000000000007,9) " id="svg_21" class="">
  <rect x="0" y="0" rx="0.5" ry="2" width="1" height="4" fill="#1c35af" id="svg_22">
    <animate attributeName="opacity" values="1;0" keyTimes="0;1" dur="1s" begin="-0.6206896551724138s" repeatCount="indefinite"/>
  </rect>
</g><g transform="rotate(136.55172729492188 0.5000000000000002,9) " id="svg_23" class="">
  <rect x="0" y="0" rx="0.5" ry="2" width="1" height="4" fill="#1c35af" id="svg_24">
    <animate attributeName="opacity" values="1;0" keyTimes="0;1" dur="1s" begin="-0.5862068965517241s" repeatCount="indefinite"/>
  </rect>
</g><g transform="rotate(148.96551513671875 0.49999999999999983,9) " id="svg_25" class="">
  <rect x="0" y="0" rx="0.5" ry="2" width="1" height="4" fill="#1c35af" id="svg_26">
    <animate attributeName="opacity" values="1;0" keyTimes="0;1" dur="1s" begin="-0.5517241379310345s" repeatCount="indefinite"/>
  </rect>
</g><g transform="rotate(161.37930297851562 0.5000000000000001,9) " id="svg_27" class="">
  <rect x="0" y="0" rx="0.5" ry="2" width="1" height="4" fill="#1c35af" id="svg_28">
    <animate attributeName="opacity" values="1;0" keyTimes="0;1" dur="1s" begin="-0.5172413793103449s" repeatCount="indefinite"/>
  </rect>
</g><g transform="rotate(173.79310607910156 0.49999999999999994,9.000000000000002) " id="svg_29" class="">
  <rect x="0" y="0" rx="0.5" ry="2" width="1" height="4" fill="#1c35af" id="svg_30">
    <animate attributeName="opacity" values="1;0" keyTimes="0;1" dur="1s" begin="-0.4827586206896552s" repeatCount="indefinite"/>
  </rect>
</g><g transform="rotate(186.20689392089844 0.5,9) " id="svg_31" class="">
  <rect x="0" y="0" rx="0.5" ry="2" width="1" height="4" fill="#1c35af" id="svg_32">
    <animate attributeName="opacity" values="1;0" keyTimes="0;1" dur="1s" begin="-0.4482758620689655s" repeatCount="indefinite"/>
  </rect>
</g><g transform="rotate(198.62069702148438 0.5000000000000001,9) " id="svg_33" class="">
  <rect x="0" y="0" rx="0.5" ry="2" width="1" height="4" fill="#1c35af" id="svg_34">
    <animate attributeName="opacity" values="1;0" keyTimes="0;1" dur="1s" begin="-0.41379310344827586s" repeatCount="indefinite"/>
  </rect>
</g><g transform="rotate(211.03448486328125 0.5000000000000002,9.000000000000002) " id="svg_35" class="">
  <rect x="0" y="0" rx="0.5" ry="2" width="1" height="4" fill="#1c35af" id="svg_36">
    <animate attributeName="opacity" values="1;0" keyTimes="0;1" dur="1s" begin="-0.3793103448275862s" repeatCount="indefinite"/>
  </rect>
</g><g transform="rotate(223.44827270507812 0.4999999999999997,9) " id="svg_37" class="">
  <rect x="0" y="0" rx="0.5" ry="2" width="1" height="4" fill="#1c35af" id="svg_38">
    <animate attributeName="opacity" values="1;0" keyTimes="0;1" dur="1s" begin="-0.3448275862068966s" repeatCount="indefinite"/>
  </rect>
</g><g transform="rotate(235.86207580566406 0.4999999999999998,9) " id="svg_39" class="">
  <rect x="0" y="0" rx="0.5" ry="2" width="1" height="4" fill="#1c35af" id="svg_40">
    <animate attributeName="opacity" values="1;0" keyTimes="0;1" dur="1s" begin="-0.3103448275862069s" repeatCount="indefinite"/>
  </rect>
</g><g transform="rotate(248.27586364746094 0.49999999999999895,8.999999999999998) " id="svg_41" class="">
  <rect x="0" y="0" rx="0.5" ry="2" width="1" height="4" fill="#1c35af" id="svg_42">
    <animate attributeName="opacity" values="1;0" keyTimes="0;1" dur="1s" begin="-0.27586206896551724s" repeatCount="indefinite"/>
  </rect>
</g><g transform="rotate(260.6896667480469 0.49999999999999983,9) " id="svg_43" class="">
  <rect x="0" y="0" rx="0.5" ry="2" width="1" height="4" fill="#1c35af" id="svg_44">
    <animate attributeName="opacity" values="1;0" keyTimes="0;1" dur="1s" begin="-0.2413793103448276s" repeatCount="indefinite"/>
  </rect>
</g><g transform="rotate(273.10345458984375 0.4999999999999998,9) " id="svg_45" class="">
  <rect x="0" y="0" rx="0.5" ry="2" width="1" height="4" fill="#1c35af" id="svg_46">
    <animate attributeName="opacity" values="1;0" keyTimes="0;1" dur="1s" begin="-0.20689655172413793s" repeatCount="indefinite"/>
  </rect>
</g><g transform="rotate(285.5172424316406 0.5000000000000017,9.000000000000002) " id="svg_47" class="">
  <rect x="0" y="0" rx="0.5" ry="2" width="1" height="4" fill="#1c35af" id="svg_48">
    <animate attributeName="opacity" values="1;0" keyTimes="0;1" dur="1s" begin="-0.1724137931034483s" repeatCount="indefinite"/>
  </rect>
</g><g transform="rotate(297.9310302734375 0.500000000000001,9.000000000000002) " id="svg_49" class="">
  <rect x="0" y="0" rx="0.5" ry="2" width="1" height="4" fill="#1c35af" id="svg_50">
    <animate attributeName="opacity" values="1;0" keyTimes="0;1" dur="1s" begin="-0.13793103448275862s" repeatCount="indefinite"/>
  </rect>
</g><g transform="rotate(310.3448181152344 0.5000000000000004,9) " id="svg_51" class="">
  <rect x="0" y="0" rx="0.5" ry="2" width="1" height="4" fill="#1c35af" id="svg_52">
    <animate attributeName="opacity" values="1;0" keyTimes="0;1" dur="1s" begin="-0.10344827586206896s" repeatCount="indefinite"/>
  </rect>
</g><g transform="rotate(322.75860595703125 0.5,9) " id="svg_53" class="">
  <rect x="0" y="0" rx="0.5" ry="2" width="1" height="4" fill="#1c35af" id="svg_54">
    <animate attributeName="opacity" values="1;0" keyTimes="0;1" dur="1s" begin="-0.06896551724137931s" repeatCount="indefinite"/>
  </rect>
</g><g transform="rotate(335.17242431640625 0.500000000000009,9.000000000000002) " id="svg_55" class="">
  <rect x="0" y="0" rx="0.5" ry="2" width="1" height="4" fill="#1c35af" id="svg_56">
    <animate attributeName="opacity" values="1;0" keyTimes="0;1" dur="1s" begin="-0.034482758620689655s" repeatCount="indefinite"/>
  </rect>
</g><g transform="rotate(347.5862121582031 0.4999999999999929,9) " id="svg_57" class="">
  <rect x="0" y="0" rx="0.5" ry="2" width="1" height="4" fill="#1c35af" id="svg_58">
    <animate attributeName="opacity" values="1;0" keyTimes="0;1" dur="1s" begin="0s" repeatCount="indefinite"/>
  </rect>
</g></g></svg>